<?xml version="1.0" encoding="UTF-8"?>
<svg width="486px" height="486px" viewBox="0 0 486 486" version="1.1" xmlns="http://www.w3.org/2000/svg" xmlns:xlink="http://www.w3.org/1999/xlink">
    <title>Maquina</title>
    <defs>
        <linearGradient x1="21.1516204%" y1="21.8476723%" x2="100%" y2="93.4678819%" id="linearGradient-1">
            <stop stop-color="#50B1FD" stop-opacity="0.96" offset="0%"></stop>
            <stop stop-color="#DE77DE" stop-opacity="0.96" offset="100%"></stop>
        </linearGradient>
    </defs>
    <g id="Page-1" stroke="none" stroke-width="1" fill="none" fill-rule="evenodd">
        <g id="512x512" transform="translate(-13, -13)">
            <g id="Maquina" transform="translate(13, 13)">
                <circle id="Oval" fill="url(#linearGradient-1)" cx="243" cy="243" r="243"></circle>
                <path d="M238.903993,47.0020569 L242.334113,47.0186554 L242.334113,77.4498077 C133.550584,86.1721385 79.15882,149.344502 79.15882,266.966898 L133.725383,235.257414 C137.439811,178.976687 184.267097,134.476663 241.487922,134.476663 C251.649732,134.476663 261.48375,135.880104 270.806723,138.503732 C271.590969,80.5998948 272.113926,50.2443075 272.375188,47.4353197 C433.952059,83.8787039 469.507901,240.372304 410.917558,338.537348 C406.535842,336.007563 397.854868,330.9956 384.563407,323.321772 C431.401412,224.751307 403.888422,146.060476 302.02444,87.249278 L302.211776,153.152026 C330.748881,172.589517 349.487922,205.344721 349.487922,242.476663 C349.487922,272.726448 337.051466,300.071544 317.01258,319.677925 C366.55325,348.023638 392.480146,362.986479 394.793105,364.565087 C284.584981,488.215299 130.47478,443.443537 73.0228597,344.60791 C77.359758,342.002039 85.9519394,336.839336 99.1074484,328.934708 C162.611604,417.68806 244.774718,431.774729 345.59679,371.194717 L288.478601,339.745457 C274.271675,346.62149 258.33001,350.476663 241.487922,350.476663 C191.216544,350.476663 148.967426,316.129284 136.927862,269.621819 C87.8375903,297.079971 62.0289547,311.390059 59.5035466,312.550882 C11.2605583,157.562542 123.38233,49.7416597 235.472832,47.0515072 L238.903993,47.0020569 Z M241.987922,196.476663 C216.306681,196.476663 195.487922,217.295422 195.487922,242.976663 C195.487922,268.657904 216.306681,289.476663 241.987922,289.476663 C267.669162,289.476663 288.487922,268.657904 288.487922,242.976663 C288.487922,217.295422 267.669162,196.476663 241.987922,196.476663 Z" id="Combined-Shape" fill="#FFFFFF"></path>
            </g>
        </g>
    </g>
</svg>